<svg width="300" height="180" viewBox="0 0 300 180" fill="none" xmlns="http://www.w3.org/2000/svg">
  <defs>
    <style>
      .main-stroke { fill: none; stroke: #2A3492; stroke-width: 8; stroke-linecap: round; stroke-linejoin: round; }
      .solid-fill { fill: #2A3492; stroke: none; }
      .boat-lines { fill: none; stroke: #2A3492; stroke-width: 5; stroke-linecap: round; stroke-linejoin: round; }
      .white-bg { fill: white; }
    </style>
  </defs>

  <path class="main-stroke" d="
    M 50,40 
    H 210 
    C 230,40 245,55 245,75 
    L 255,70 
    L 260,70 
    L 265,80 
    L 265,100 
    L 260,110 
    L 255,110 
    L 245,105 
    C 245,125 230,140 210,140 
    H 50 
    C 30,140 15,125 15,105 
    V 75 
    C 15,55 30,40 50,40 
    Z" 
  />

  <path class="solid-fill" d="
    M 15,105 
    V 115 
    C 15,125 20,135 30,138 
    H 210 
    C 230,138 240,125 245,105 
    V 100 
    C 220,100 200,115 170,115 
    C 140,115 120,95 90,95 
    C 60,95 40,110 15,105 
    Z" 
  />

  <path class="solid-fill" d="
    M 265,80 
    L 285,75 
    C 288,74 290,76 290,80 
    V 100 
    C 290,104 288,106 285,105 
    L 265,100 
    Z" 
  />

  <path class="white-bg" d="
    M 80,95 
    L 130,125 
    L 180,95 
    L 160,60 
    L 130,45 
    L 100,60 
    Z" 
  />
  
  <path class="boat-lines" d="
    M 85,95 L 130,120 L 175,95
    M 130,120 V 50
    M 130,50 L 85,95
    M 130,50 L 175,95
    M 130,120 L 105,95
    M 130,120 L 155,95
    " 
  />
</svg>